<svg width="24" height="22" viewBox="0 0 24 22" fill="none" xmlns="http://www.w3.org/2000/svg">
<path fill-rule="evenodd" clip-rule="evenodd" d="M16.2808 0.915938C15.9125 0.344954 15.2795 0 14.6001 0H8.90167C8.22264 0 7.58999 0.344534 7.2216 0.914949L6.17045 2.54253C5.98626 2.82773 5.66993 3 5.33041 3H4.5C2.01472 3 0 5.01472 0 7.5V17.5C0 19.9853 2.01472 22 4.5 22H19C21.4853 22 23.5 19.9853 23.5 17.5V7.5C23.5 5.01472 21.4853 3 19 3H18.17L18.0439 2.99203C17.7532 2.95511 17.4907 2.79184 17.3296 2.54203L16.2808 0.915938ZM8.90167 1.5H14.6001C14.7699 1.5 14.9282 1.58624 15.0202 1.72898L16.0691 3.35508C16.4698 3.97643 17.1242 4.38728 17.8549 4.48008L18.0754 4.49701L19 4.5C20.6569 4.5 22 5.84315 22 7.5V17.5C22 19.1569 20.6569 20.5 19 20.5H4.5C2.84315 20.5 1.5 19.1569 1.5 17.5V7.5C1.5 5.84315 2.84315 4.5 4.5 4.5H5.33041C6.17921 4.5 6.97002 4.06933 7.43051 3.35631L8.48166 1.72874C8.57375 1.58613 8.73192 1.5 8.90167 1.5ZM11.75 6.5C14.9256 6.5 17.5 9.07436 17.5 12.25C17.5 15.4256 14.9256 18 11.75 18C8.57436 18 6 15.4256 6 12.25C6 9.07436 8.57436 6.5 11.75 6.5ZM7.5 12.25C7.5 9.90279 9.40279 8 11.75 8C14.0972 8 16 9.90279 16 12.25C16 14.5972 14.0972 16.5 11.75 16.5C9.40279 16.5 7.5 14.5972 7.5 12.25Z" fill="white" fill-opacity="0.6"/>
</svg>
